<svg width="49" height="49" viewBox="0 0 49 49" fill="none" xmlns="http://www.w3.org/2000/svg">
<path d="M39.7389 42.5774L26.9657 29.8042C25.9519 30.6152 24.7861 31.2572 23.4682 31.7303C22.1504 32.2034 20.748 32.4399 19.2612 32.4399C15.5779 32.4399 12.461 31.164 9.91037 28.612C7.35978 26.0601 6.08381 22.9431 6.08246 19.2612C6.08111 15.5793 7.35708 12.4623 9.91037 9.9104C12.4637 7.35846 15.5806 6.08249 19.2612 6.08249C22.9418 6.08249 26.0594 7.35846 28.614 9.9104C31.1687 12.4623 32.4439 15.5793 32.4399 19.2612C32.4399 20.748 32.2034 22.1504 31.7303 23.4683C31.2572 24.7861 30.6151 25.9519 29.8041 26.9657L42.5774 39.7389L39.7389 42.5774ZM19.2612 28.3849C21.7955 28.3849 23.9501 27.4982 25.7248 25.7249C27.4996 23.9515 28.3863 21.7969 28.3849 19.2612C28.3836 16.7255 27.4969 14.5716 25.7248 12.7996C23.9528 11.0275 21.7982 10.1402 19.2612 10.1375C16.7241 10.1348 14.5702 11.0221 12.7996 12.7996C11.0289 14.577 10.1415 16.7309 10.1374 19.2612C10.1334 21.7915 11.0208 23.9461 12.7996 25.7249C14.5783 27.5036 16.7322 28.3903 19.2612 28.3849Z" fill="#413F3F"/>
</svg>
